####
#
# OBJ File Generated by Meshlab
#
####
# Object Y_Axis.obj
#
# Vertices: 132
# Faces: 248
#
####
vn 0.0000001 -2.9670594 -3.1296389
v 0.0000000 0.0000000 -1.0000000
vn 0.5434561 -3.3161252 -3.0820928
v 0.1736482 50.0000000 -0.9848077
vn 0.5434517 -2.9670601 -3.0820761
v 0.1736482 0.0000000 -0.9848077
vn 1.0703949 -3.3161259 -2.9408822
v 0.3420202 50.0000000 -0.9396926
vn 1.0703923 -2.9670596 -2.9408832
v 0.3420202 0.0000000 -0.9396926
vn 1.5648119 -3.3161254 -2.7103314
v 0.5000000 50.0000000 -0.8660254
vn 1.5648193 -2.9670601 -2.7103467
v 0.5000000 0.0000000 -0.8660254
vn 2.0116928 -3.3161259 -2.3974426
v 0.6427876 50.0000000 -0.7660444
vn 2.0116806 -2.9670596 -2.3974304
v 0.6427876 0.0000000 -0.7660444
vn 2.3974304 -3.3161256 -2.0116806
v 0.7660444 50.0000000 -0.6427876
vn 2.3974426 -2.9670596 -2.0116928
v 0.7660444 0.0000000 -0.6427876
vn 2.7103467 -3.3161256 -1.5648193
v 0.8660254 50.0000000 -0.5000000
vn 2.7103314 -2.9670601 -1.5648119
v 0.8660254 0.0000000 -0.5000000
vn 2.9408832 -3.3161259 -1.0703923
v 0.9396926 50.0000000 -0.3420202
vn 2.9408822 -2.9670596 -1.0703949
v 0.9396926 0.0000000 -0.3420202
vn 3.0820761 -3.3161252 -0.5434517
v 0.9848077 50.0000000 -0.1736482
vn 3.0820928 -2.9670601 -0.5434561
v 0.9848077 0.0000000 -0.1736482
vn 3.1296389 -3.3161259 -0.0000001
v 1.0000000 50.0000000 -0.0000000
vn 3.1296389 -2.9670594 0.0000001
v 1.0000000 0.0000000 -0.0000000
vn 3.0820928 -3.3161252 0.5434560
v 0.9848077 50.0000000 0.1736482
vn 3.0820761 -2.9670601 0.5434517
v 0.9848077 0.0000000 0.1736482
vn 2.9408822 -3.3161259 1.0703949
v 0.9396926 50.0000000 0.3420202
vn 2.9408832 -2.9670596 1.0703923
v 0.9396926 0.0000000 0.3420202
vn 2.7103314 -3.3161254 1.5648119
v 0.8660254 50.0000000 0.5000000
vn 2.7103467 -2.9670601 1.5648193
v 0.8660254 0.0000000 0.5000000
vn 2.3974426 -3.3161259 2.0116928
v 0.7660444 50.0000000 0.6427876
vn 2.3974304 -2.9670596 2.0116806
v 0.7660444 0.0000000 0.6427876
vn 2.0116806 -3.3161256 2.3974304
v 0.6427876 50.0000000 0.7660444
vn 2.0116928 -2.9670596 2.3974426
v 0.6427876 0.0000000 0.7660444
vn 1.5648193 -3.3161256 2.7103467
v 0.5000000 50.0000000 0.8660254
vn 1.5648119 -2.9670601 2.7103314
v 0.5000000 0.0000000 0.8660254
vn 1.0703923 -3.3161259 2.9408832
v 0.3420202 50.0000000 0.9396926
vn 1.0703949 -2.9670596 2.9408822
v 0.3420202 0.0000000 0.9396926
vn 0.5434517 -3.3161252 3.0820761
v 0.1736482 50.0000000 0.9848077
vn 0.5434561 -2.9670601 3.0820928
v 0.1736482 0.0000000 0.9848077
vn 0.0000001 -3.3161259 3.1296389
v 0.0000000 50.0000000 1.0000000
vn -0.0000001 0.0000000 3.1296389
v 0.0000000 0.0000000 1.0000000
vn -0.5434560 -3.3161252 3.0820928
v -0.1736482 50.0000000 0.9848077
vn -0.5434517 -2.9670601 3.0820761
v -0.1736482 0.0000000 0.9848077
vn -1.0703949 -3.3161259 2.9408822
v -0.3420202 50.0000000 0.9396926
vn -1.0703923 -2.9670596 2.9408832
v -0.3420202 0.0000000 0.9396926
vn -1.5648119 -3.3161254 2.7103314
v -0.5000000 50.0000000 0.8660254
vn -1.5648193 -2.9670601 2.7103467
v -0.5000000 0.0000000 0.8660254
vn -2.0116928 -3.3161259 2.3974426
v -0.6427876 50.0000000 0.7660444
vn -2.0116806 -2.9670596 2.3974304
v -0.6427876 0.0000000 0.7660444
vn -2.3974304 -3.3161256 2.0116806
v -0.7660444 50.0000000 0.6427876
vn -2.3974426 -2.9670596 2.0116928
v -0.7660444 0.0000000 0.6427876
vn -2.7103467 -3.3161256 1.5648193
v -0.8660254 50.0000000 0.5000000
vn -2.7103314 -2.9670601 1.5648119
v -0.8660254 0.0000000 0.5000000
vn -2.9408832 -3.3161259 1.0703923
v -0.9396926 50.0000000 0.3420202
vn -2.9408822 -2.9670596 1.0703949
v -0.9396926 0.0000000 0.3420202
vn -3.0820761 -3.3161252 0.5434517
v -0.9848077 50.0000000 0.1736482
vn -3.0820928 -2.9670601 0.5434561
v -0.9848077 0.0000000 0.1736482
vn -3.1296389 -3.3161259 0.0000001
v -1.0000000 50.0000000 0.0000000
vn -3.1296389 -2.9670594 -0.0000001
v -1.0000000 0.0000000 0.0000000
vn -3.0820928 -3.3161252 -0.5434560
v -0.9848077 50.0000000 -0.1736482
vn -3.0820761 -2.9670601 -0.5434517
v -0.9848077 0.0000000 -0.1736482
vn -2.9408822 -3.3161259 -1.0703949
v -0.9396926 50.0000000 -0.3420202
vn -2.9408832 -2.9670596 -1.0703923
v -0.9396926 0.0000000 -0.3420202
vn -2.7103314 -3.3161254 -1.5648119
v -0.8660254 50.0000000 -0.5000000
vn -2.7103467 -2.9670601 -1.5648193
v -0.8660254 0.0000000 -0.5000000
vn -2.3974426 -3.3161259 -2.0116928
v -0.7660444 50.0000000 -0.6427876
vn -2.3974304 -2.9670596 -2.0116806
v -0.7660444 0.0000000 -0.6427876
vn -2.0116806 -3.3161256 -2.3974304
v -0.6427876 50.0000000 -0.7660444
vn -2.0116928 -2.9670596 -2.3974426
v -0.6427876 0.0000000 -0.7660444
vn -1.5648193 -3.3161256 -2.7103467
v -0.5000000 50.0000000 -0.8660254
vn -1.5648119 -2.9670601 -2.7103314
v -0.5000000 0.0000000 -0.8660254
vn -1.0703923 -3.3161259 -2.9408832
v -0.3420202 50.0000000 -0.9396926
vn -1.0703949 -2.9670596 -2.9408822
v -0.3420202 0.0000000 -0.9396926
vn -0.5434517 -3.3161252 -3.0820761
v -0.1736482 50.0000000 -0.9848077
vn -0.5434561 -2.9670601 -3.0820928
v -0.1736482 0.0000000 -0.9848077
vn -0.0000001 -3.3161259 -3.1296389
v 0.0000000 50.0000000 -1.0000000
vn 0.0000000 -6.2831826 0.0000000
v 0.0000000 0.0000000 0.0000000
vn 0.0000000 -2.9670594 0.0000000
v 0.0000000 0.0000000 1.0000000
vn 2.0205462 -1.4442213 -1.6954398
v 2.2981331 50.0000000 -1.9283628
vn 2.2842596 -1.4442197 -1.3188180
v 2.5980761 50.0000000 -1.5000000
vn 2.4785669 -1.4442198 -0.9021246
v 2.8190777 50.0000000 -1.0260605
vn 2.5975642 -1.4442196 -0.4580210
v 2.9544232 50.0000000 -0.5209445
vn 0.0000000 -2.9670591 0.0000000
v 3.0000000 50.0000000 -0.0000000
vn 2.5975642 -1.4442196 0.4580210
v 2.9544232 50.0000000 0.5209445
vn 2.4785671 -1.4442207 0.9021247
v 2.8190777 50.0000000 1.0260605
vn 2.2842596 -1.4442203 1.3188180
v 2.5980761 50.0000000 1.5000000
vn 2.0205462 -1.4442199 1.6954398
v 2.2981331 50.0000000 1.9283628
vn 1.6954398 -1.4442214 2.0205462
v 1.9283628 50.0000000 2.2981331
vn 1.3188180 -1.4442198 2.2842596
v 1.5000000 50.0000000 2.5980761
vn 0.9021248 -1.4442196 2.4785669
v 1.0260605 50.0000000 2.8190777
vn 0.4580210 -1.4442196 2.5975642
v 0.5209445 50.0000000 2.9544232
vn 0.0000000 -2.9670591 0.0000000
v 0.0000000 50.0000000 3.0000000
vn -0.4580210 -1.4442196 2.5975642
v -0.5209445 50.0000000 2.9544232
vn -0.9021248 -1.4442205 2.4785671
v -1.0260605 50.0000000 2.8190777
vn -1.3188180 -1.4442202 2.2842596
v -1.5000000 50.0000000 2.5980761
vn -1.6954398 -1.4442199 2.0205462
v -1.9283628 50.0000000 2.2981331
vn -2.0205462 -1.4442213 1.6954398
v -2.2981331 50.0000000 1.9283628
vn -2.2842596 -1.4442197 1.3188180
v -2.5980761 50.0000000 1.5000000
vn -2.4785669 -1.4442198 0.9021246
v -2.8190777 50.0000000 1.0260605
vn -2.5975642 -1.4442196 0.4580210
v -2.9544232 50.0000000 0.5209445
vn 0.0000000 -2.9670591 0.0000000
v -3.0000000 50.0000000 0.0000000
vn -2.5975642 -1.4442196 -0.4580210
v -2.9544232 50.0000000 -0.5209445
vn -2.4785671 -1.4442207 -0.9021247
v -2.8190777 50.0000000 -1.0260605
vn -2.2842596 -1.4442203 -1.3188180
v -2.5980761 50.0000000 -1.5000000
vn -2.0205462 -1.4442199 -1.6954398
v -2.2981331 50.0000000 -1.9283628
vn -1.6954398 -1.4442214 -2.0205462
v -1.9283628 50.0000000 -2.2981331
vn -1.3188180 -1.4442198 -2.2842596
v -1.5000000 50.0000000 -2.5980761
vn -0.9021248 -1.4442196 -2.4785669
v -1.0260605 50.0000000 -2.8190777
vn -0.4580210 -1.4442196 -2.5975642
v -0.5209445 50.0000000 -2.9544232
vn -0.0000000 -1.4442191 -2.6376357
v 0.0000000 50.0000000 -3.0000000
vn 0.4580210 -1.4442196 -2.5975642
v 0.5209445 50.0000000 -2.9544232
vn 0.9021248 -1.4442205 -2.4785671
v 1.0260605 50.0000000 -2.8190777
vn 1.3188180 -1.4442202 -2.2842596
v 1.5000000 50.0000000 -2.5980761
vn 1.6954398 -1.4442199 -2.0205462
v 1.9283628 50.0000000 -2.2981331
vn 0.0000000 1.5648263 -0.0000000
v 0.0000000 55.1961517 0.0000000
vn 2.6376357 1.5228400 -0.0000000
v 3.0000000 50.0000000 -0.0000000
vn 0.0000000 1.5228400 2.6376357
v 0.0000000 50.0000000 3.0000000
vn -2.6376357 1.5228400 0.0000000
v -3.0000000 50.0000000 0.0000000
vn -2.9707775 -0.7123575 3.6122823
v 3.2051282 64.8460159 1.0000000
vn -1.3999814 0.8584388 1.1001068
v 0.3205128 70.5150909 1.0000000
vn -2.9707778 -0.7123575 -3.6122820
v 3.2051282 64.8460159 -1.0000000
vn -1.3999814 0.8584388 -1.1001070
v 0.3205128 70.5150909 -1.0000000
vn -1.5707964 -1.5707963 1.5707963
v 3.2051282 60.5150871 1.0000000
vn -1.5707963 -1.5707964 -1.5707963
v 3.2051282 60.5150871 -1.0000000
vn 1.5707963 -1.5707964 1.5707965
v 5.0000000 60.5150871 1.0000000
vn 1.5707964 -1.5707963 -1.5707964
v 5.0000000 60.5150871 -1.0000000
vn 2.9707780 -0.7123573 3.6122823
v 5.0000000 64.8460159 1.0000000
vn 2.9707778 -0.7123574 -3.6122820
v 5.0000000 64.8460159 -1.0000000
vn 1.3999815 0.8584390 1.1001070
v 7.8846149 70.5150909 1.0000000
vn 1.3999815 0.8584390 -1.1001070
v 7.8846149 70.5150909 -1.0000000
vn -1.3994894 2.2841196 2.0421758
v 5.8914266 70.5150909 1.0000000
vn -1.3994895 2.2841198 -2.0421758
v 5.8914266 70.5150909 -1.0000000
vn 0.0006462 1.4253776 5.3413329
v 4.1025639 67.0054703 1.0000000
vn 0.0006462 1.4253775 -5.3413324
v 4.1025639 67.0054703 -1.0000000
vn 1.4001356 2.2828505 2.0412691
v 2.3177083 70.5150909 1.0000000
vn 1.4001358 2.2828507 -2.0412691
v 2.3177083 70.5150909 -1.0000000
# 132 vertices, 0 vertices normals

f 1//1 2//2 3//3
f 3//3 2//2 4//4
f 3//3 4//4 5//5
f 5//5 4//4 6//6
f 5//5 6//6 7//7
f 7//7 6//6 8//8
f 7//7 8//8 9//9
f 9//9 8//8 10//10
f 9//9 10//10 11//11
f 11//11 10//10 12//12
f 11//11 12//12 13//13
f 13//13 12//12 14//14
f 13//13 14//14 15//15
f 15//15 14//14 16//16
f 15//15 16//16 17//17
f 17//17 16//16 18//18
f 17//17 18//18 19//19
f 19//19 18//18 20//20
f 19//19 20//20 21//21
f 21//21 20//20 22//22
f 21//21 22//22 23//23
f 23//23 22//22 24//24
f 23//23 24//24 25//25
f 25//25 24//24 26//26
f 25//25 26//26 27//27
f 27//27 26//26 28//28
f 27//27 28//28 29//29
f 29//29 28//28 30//30
f 29//29 30//30 31//31
f 31//31 30//30 32//32
f 31//31 32//32 33//33
f 33//33 32//32 34//34
f 33//33 34//34 35//35
f 35//35 34//34 36//36
f 35//35 36//36 37//37
f 37//37 36//36 38//38
f 37//37 38//38 39//39
f 39//39 38//38 40//40
f 39//39 40//40 41//41
f 41//41 40//40 42//42
f 41//41 42//42 43//43
f 43//43 42//42 44//44
f 43//43 44//44 45//45
f 45//45 44//44 46//46
f 45//45 46//46 47//47
f 47//47 46//46 48//48
f 47//47 48//48 49//49
f 49//49 48//48 50//50
f 49//49 50//50 51//51
f 51//51 50//50 52//52
f 51//51 52//52 53//53
f 53//53 52//52 54//54
f 53//53 54//54 55//55
f 55//55 54//54 56//56
f 55//55 56//56 57//57
f 57//57 56//56 58//58
f 57//57 58//58 59//59
f 59//59 58//58 60//60
f 59//59 60//60 61//61
f 61//61 60//60 62//62
f 61//61 62//62 63//63
f 63//63 62//62 64//64
f 63//63 64//64 65//65
f 65//65 64//64 66//66
f 65//65 66//66 67//67
f 67//67 66//66 68//68
f 67//67 68//68 69//69
f 69//69 68//68 70//70
f 69//69 70//70 71//71
f 71//71 70//70 72//72
f 71//71 72//72 1//1
f 1//1 72//72 2//2
f 33//33 35//35 73//73
f 73//73 35//35 74//74
f 73//73 74//74 39//39
f 27//27 29//29 73//73
f 73//73 29//29 31//31
f 73//73 31//31 33//33
f 21//21 23//23 73//73
f 73//73 23//23 25//25
f 73//73 25//25 27//27
f 15//15 17//17 73//73
f 73//73 17//17 19//19
f 73//73 19//19 21//21
f 9//9 11//11 73//73
f 73//73 11//11 13//13
f 73//73 13//13 15//15
f 3//3 5//5 73//73
f 73//73 5//5 7//7
f 73//73 7//7 9//9
f 69//69 71//71 73//73
f 73//73 71//71 1//1
f 73//73 1//1 3//3
f 63//63 65//65 73//73
f 73//73 65//65 67//67
f 73//73 67//67 69//69
f 57//57 59//59 73//73
f 73//73 59//59 61//61
f 73//73 61//61 63//63
f 51//51 53//53 73//73
f 73//73 53//53 55//55
f 73//73 55//55 57//57
f 45//45 47//47 73//73
f 73//73 47//47 49//49
f 73//73 49//49 51//51
f 39//39 41//41 73//73
f 73//73 41//41 43//43
f 73//73 43//43 45//45
f 10//10 75//75 12//12
f 12//12 75//75 76//76
f 12//12 76//76 14//14
f 14//14 76//76 77//77
f 14//14 77//77 16//16
f 16//16 77//77 78//78
f 16//16 78//78 18//18
f 18//18 78//78 79//79
f 18//18 79//79 20//20
f 20//20 79//79 80//80
f 20//20 80//80 22//22
f 22//22 80//80 81//81
f 22//22 81//81 24//24
f 24//24 81//81 82//82
f 24//24 82//82 26//26
f 26//26 82//82 83//83
f 26//26 83//83 28//28
f 28//28 83//83 84//84
f 28//28 84//84 30//30
f 30//30 84//84 85//85
f 30//30 85//85 32//32
f 32//32 85//85 86//86
f 32//32 86//86 34//34
f 34//34 86//86 87//87
f 34//34 87//87 36//36
f 36//36 87//87 88//88
f 36//36 88//88 38//38
f 38//38 88//88 89//89
f 38//38 89//89 40//40
f 40//40 89//89 90//90
f 40//40 90//90 42//42
f 42//42 90//90 91//91
f 42//42 91//91 44//44
f 44//44 91//91 92//92
f 44//44 92//92 46//46
f 46//46 92//92 93//93
f 46//46 93//93 48//48
f 48//48 93//93 94//94
f 48//48 94//94 50//50
f 50//50 94//94 95//95
f 50//50 95//95 52//52
f 52//52 95//95 96//96
f 52//52 96//96 54//54
f 54//54 96//96 97//97
f 54//54 97//97 56//56
f 56//56 97//97 98//98
f 56//56 98//98 58//58
f 58//58 98//98 99//99
f 58//58 99//99 60//60
f 60//60 99//99 100//100
f 60//60 100//100 62//62
f 62//62 100//100 101//101
f 62//62 101//101 64//64
f 64//64 101//101 102//102
f 64//64 102//102 66//66
f 66//66 102//102 103//103
f 66//66 103//103 68//68
f 68//68 103//103 104//104
f 68//68 104//104 70//70
f 70//70 104//104 105//105
f 70//70 105//105 72//72
f 72//72 105//105 106//106
f 72//72 106//106 2//2
f 2//2 106//106 107//107
f 2//2 107//107 4//4
f 4//4 107//107 108//108
f 4//4 108//108 6//6
f 6//6 108//108 109//109
f 6//6 109//109 8//8
f 8//8 109//109 110//110
f 8//8 110//110 10//10
f 10//10 110//110 75//75
f 108//108 107//107 111//111
f 108//108 111//111 109//109
f 110//110 109//109 111//111
f 75//75 110//110 111//111
f 76//76 75//75 111//111
f 77//77 76//76 111//111
f 78//78 77//77 111//111
f 112//112 78//78 111//111
f 80//80 112//112 111//111
f 81//81 80//80 111//111
f 82//82 81//81 111//111
f 83//83 82//82 111//111
f 84//84 83//83 111//111
f 85//85 84//84 111//111
f 86//86 85//85 111//111
f 87//87 86//86 111//111
f 113//113 87//87 111//111
f 89//89 113//113 111//111
f 90//90 89//89 111//111
f 91//91 90//90 111//111
f 92//92 91//91 111//111
f 93//93 92//92 111//111
f 94//94 93//93 111//111
f 95//95 94//94 111//111
f 96//96 95//95 111//111
f 114//114 96//96 111//111
f 98//98 114//114 111//111
f 99//99 98//98 111//111
f 100//100 99//99 111//111
f 101//101 100//100 111//111
f 102//102 101//101 111//111
f 103//103 102//102 111//111
f 104//104 103//103 111//111
f 105//105 104//104 111//111
f 106//106 105//105 111//111
f 107//107 106//106 111//111
f 115//115 116//116 117//117
f 117//117 116//116 118//118
f 119//119 115//115 120//120
f 120//120 115//115 117//117
f 121//121 119//119 122//122
f 122//122 119//119 120//120
f 123//123 121//121 124//124
f 124//124 121//121 122//122
f 125//125 123//123 126//126
f 126//126 123//123 124//124
f 127//127 125//125 128//128
f 128//128 125//125 126//126
f 129//129 127//127 130//130
f 130//130 127//127 128//128
f 131//131 129//129 132//132
f 132//132 129//129 130//130
f 116//116 131//131 118//118
f 118//118 131//131 132//132
f 125//125 127//127 123//123
f 123//123 127//127 129//129
f 123//123 129//129 121//121
f 121//121 129//129 119//119
f 131//131 116//116 129//129
f 129//129 116//116 115//115
f 129//129 115//115 119//119
f 128//128 126//126 130//130
f 130//130 126//126 124//124
f 118//118 132//132 117//117
f 117//117 132//132 130//130
f 117//117 130//130 120//120
f 120//120 130//130 124//124
f 120//120 124//124 122//122
# 248 faces, 0 coords texture

# End of File
